STARTFONT 2.1
FONT -Adobe-Helvetica-Bold-R-Narrow--17-120-100-100-P-72-ISO8859-1
SIZE 12 100 100
FONTBOUNDINGBOX 16 17 -3 -3

STARTPROPERTIES 26
_DEC_DEVICE_FONTNAMES "PS=Helvetica-Narrow-Bold"
FONTNAME_REGISTRY ""
FAMILY_NAME "Helvetica"
FOUNDRY "Adobe"
WEIGHT_NAME "Bold"
SLANT "R"
SETWIDTH_NAME "Narrow"
ADD_STYLE_NAME ""
PIXEL_SIZE 17
POINT_SIZE 120
RESOLUTION_X 100
RESOLUTION_Y 100
SPACING "P"
AVERAGE_WIDTH 72
CHARSET_REGISTRY "ISO8859"
CHARSET_ENCODING "1"
CHARSET_COLLECTIONS "ASCII ISO8859-1 ADOBE-STANDARD"
FULL_NAME "Helvetica Narrow Bold"
COPYRIGHT "Copyright (c) 1991 Adobe Systems, Inc."
CAP_HEIGHT 12
X_HEIGHT 9
WEIGHT 10
QUAD_WIDTH 8
DEFAULT_CHAR 0
FONT_DESCENT 3
FONT_ASCENT 14
ENDPROPERTIES

CHARS 190

STARTCHAR space
ENCODING 32
SWIDTH 228 0
DWIDTH 3 0
BBX 1 1 0 0
BITMAP
00
ENDCHAR

STARTCHAR exclam
ENCODING 33
SWIDTH 273 0
DWIDTH 4 0
BBX 2 12 1 0
BITMAP
C0
C0
C0
C0
C0
80
80
80
00
00
C0
C0
ENDCHAR

STARTCHAR quotedbl
ENCODING 34
SWIDTH 389 0
DWIDTH 6 0
BBX 5 4 0 8
BITMAP
D8
D8
D8
90
ENDCHAR

STARTCHAR numbersign
ENCODING 35
SWIDTH 456 0
DWIDTH 7 0
BBX 8 12 -1 0
BITMAP
12
12
12
7F
7F
24
24
FE
FE
48
48
48
ENDCHAR

STARTCHAR dollar
ENCODING 36
SWIDTH 456 0
DWIDTH 7 0
BBX 7 15 0 -2
BITMAP
10
38
7C
D6
D6
D0
78
3C
16
D6
D6
7C
38
10
10
ENDCHAR

STARTCHAR percent
ENCODING 37
SWIDTH 729 0
DWIDTH 12 0
BBX 11 11 0 0
BITMAP
6180
F100
9300
9200
F600
64C0
0DE0
0920
1920
11E0
30C0
ENDCHAR

STARTCHAR ampersand
ENCODING 38
SWIDTH 592 0
DWIDTH 9 0
BBX 9 12 0 0
BITMAP
3800
7C00
6C00
6C00
3800
3000
7900
CF00
C600
CE00
FF00
7180
ENDCHAR

STARTCHAR quoteright
ENCODING 39
SWIDTH 228 0
DWIDTH 4 0
BBX 2 4 1 8
BITMAP
C0
C0
40
80
ENDCHAR

STARTCHAR parenleft
ENCODING 40
SWIDTH 273 0
DWIDTH 4 0
BBX 4 15 0 -3
BITMAP
30
20
60
40
40
C0
C0
C0
C0
C0
40
40
60
20
30
ENDCHAR

STARTCHAR parenright
ENCODING 41
SWIDTH 273 0
DWIDTH 4 0
BBX 4 15 -1 -3
BITMAP
C0
40
60
20
20
30
30
30
30
30
20
20
60
40
C0
ENDCHAR

STARTCHAR asterisk
ENCODING 42
SWIDTH 319 0
DWIDTH 5 0
BBX 5 6 0 6
BITMAP
20
20
F8
20
50
D8
ENDCHAR

STARTCHAR plus
ENCODING 43
SWIDTH 479 0
DWIDTH 8 0
BBX 6 8 1 0
BITMAP
30
30
30
FC
FC
30
30
30
ENDCHAR

STARTCHAR comma
ENCODING 44
SWIDTH 228 0
DWIDTH 3 0
BBX 2 5 0 -3
BITMAP
C0
C0
40
40
80
ENDCHAR

STARTCHAR minus
ENCODING 45
SWIDTH 479 0
DWIDTH 8 0
BBX 7 2 0 3
BITMAP
FE
FE
ENDCHAR

STARTCHAR period
ENCODING 46
SWIDTH 228 0
DWIDTH 3 0
BBX 2 2 0 0
BITMAP
C0
C0
ENDCHAR

STARTCHAR slash
ENCODING 47
SWIDTH 228 0
DWIDTH 4 0
BBX 4 11 0 0
BITMAP
10
10
30
20
20
60
40
40
C0
80
80
ENDCHAR

STARTCHAR zero
ENCODING 48
SWIDTH 456 0
DWIDTH 7 0
BBX 6 12 0 0
BITMAP
30
78
48
CC
CC
CC
CC
CC
CC
48
78
30
ENDCHAR

STARTCHAR one
ENCODING 49
SWIDTH 456 0
DWIDTH 7 0
BBX 4 12 0 0
BITMAP
10
30
F0
30
30
30
30
30
30
30
30
30
ENDCHAR

STARTCHAR two
ENCODING 50
SWIDTH 456 0
DWIDTH 7 0
BBX 6 12 0 0
BITMAP
30
78
CC
CC
0C
18
18
30
60
60
FC
FC
ENDCHAR

STARTCHAR three
ENCODING 51
SWIDTH 456 0
DWIDTH 7 0
BBX 6 12 0 0
BITMAP
30
78
CC
CC
0C
38
38
0C
CC
CC
78
30
ENDCHAR

STARTCHAR four
ENCODING 52
SWIDTH 456 0
DWIDTH 7 0
BBX 6 12 0 0
BITMAP
18
18
38
38
38
58
58
98
FC
FC
18
18
ENDCHAR

STARTCHAR five
ENCODING 53
SWIDTH 456 0
DWIDTH 7 0
BBX 6 12 0 0
BITMAP
7C
7C
60
60
D8
FC
CC
0C
0C
CC
F8
70
ENDCHAR

STARTCHAR six
ENCODING 54
SWIDTH 456 0
DWIDTH 7 0
BBX 6 12 0 0
BITMAP
38
7C
4C
C0
D8
FC
CC
CC
CC
CC
78
30
ENDCHAR

STARTCHAR seven
ENCODING 55
SWIDTH 456 0
DWIDTH 7 0
BBX 6 12 0 0
BITMAP
FC
FC
0C
08
18
10
30
30
20
60
60
60
ENDCHAR

STARTCHAR eight
ENCODING 56
SWIDTH 456 0
DWIDTH 7 0
BBX 6 12 0 0
BITMAP
38
7C
CC
CC
78
30
78
CC
CC
CC
F8
70
ENDCHAR

STARTCHAR nine
ENCODING 57
SWIDTH 456 0
DWIDTH 7 0
BBX 6 12 0 0
BITMAP
30
78
CC
CC
CC
CC
FC
6C
0C
C8
F8
70
ENDCHAR

STARTCHAR colon
ENCODING 58
SWIDTH 273 0
DWIDTH 4 0
BBX 2 8 1 0
BITMAP
C0
C0
00
00
00
00
C0
C0
ENDCHAR

STARTCHAR semicolon
ENCODING 59
SWIDTH 273 0
DWIDTH 4 0
BBX 2 11 1 -3
BITMAP
C0
C0
00
00
00
00
C0
C0
40
40
80
ENDCHAR

STARTCHAR less
ENCODING 60
SWIDTH 479 0
DWIDTH 8 0
BBX 7 8 0 0
BITMAP
02
0E
3C
F0
F0
3C
0E
02
ENDCHAR

STARTCHAR equal
ENCODING 61
SWIDTH 479 0
DWIDTH 8 0
BBX 6 6 1 1
BITMAP
FC
FC
00
00
FC
FC
ENDCHAR

STARTCHAR greater
ENCODING 62
SWIDTH 479 0
DWIDTH 8 0
BBX 7 8 0 0
BITMAP
80
E0
78
1E
1E
78
E0
80
ENDCHAR

STARTCHAR question
ENCODING 63
SWIDTH 501 0
DWIDTH 8 0
BBX 6 12 1 0
BITMAP
38
7C
CC
CC
0C
18
18
30
30
00
30
30
ENDCHAR

STARTCHAR at
ENCODING 64
SWIDTH 800 0
DWIDTH 13 0
BBX 12 14 0 -2
BITMAP
0780
1CC0
3020
6030
4690
C990
9190
9110
9330
D320
4DC0
6000
3860
0F80
ENDCHAR

STARTCHAR A
ENCODING 65
SWIDTH 592 0
DWIDTH 9 0
BBX 10 12 -1 0
BITMAP
0C00
0C00
1E00
1E00
1E00
3300
3300
3300
7F80
7F80
6180
E1C0
ENDCHAR

STARTCHAR B
ENCODING 66
SWIDTH 592 0
DWIDTH 9 0
BBX 8 12 0 0
BITMAP
FC
FE
C7
C3
C6
FC
FE
C7
C3
C7
FE
FC
ENDCHAR

STARTCHAR C
ENCODING 67
SWIDTH 592 0
DWIDTH 9 0
BBX 8 12 0 0
BITMAP
3C
7E
63
C3
C0
C0
C0
C0
C3
63
7E
3C
ENDCHAR

STARTCHAR D
ENCODING 68
SWIDTH 592 0
DWIDTH 9 0
BBX 8 12 0 0
BITMAP
FC
FE
C6
C3
C3
C3
C3
C3
C3
C6
FE
FC
ENDCHAR

STARTCHAR E
ENCODING 69
SWIDTH 547 0
DWIDTH 8 0
BBX 7 12 0 0
BITMAP
FE
FE
C0
C0
C0
FE
FE
C0
C0
C0
FE
FE
ENDCHAR

STARTCHAR F
ENCODING 70
SWIDTH 501 0
DWIDTH 8 0
BBX 7 12 1 0
BITMAP
FE
FE
C0
C0
C0
FC
FC
C0
C0
C0
C0
C0
ENDCHAR

STARTCHAR G
ENCODING 71
SWIDTH 638 0
DWIDTH 10 0
BBX 9 12 0 0
BITMAP
3E00
7F00
6380
C180
C000
C000
C780
C780
C180
6380
7F80
3E80
ENDCHAR

STARTCHAR H
ENCODING 72
SWIDTH 592 0
DWIDTH 9 0
BBX 8 12 0 0
BITMAP
C3
C3
C3
C3
C3
FF
FF
C3
C3
C3
C3
C3
ENDCHAR

STARTCHAR I
ENCODING 73
SWIDTH 228 0
DWIDTH 5 0
BBX 2 12 1 0
BITMAP
C0
C0
C0
C0
C0
C0
C0
C0
C0
C0
C0
C0
ENDCHAR

STARTCHAR J
ENCODING 74
SWIDTH 456 0
DWIDTH 7 0
BBX 6 12 0 0
BITMAP
0C
0C
0C
0C
0C
0C
0C
CC
CC
CC
FC
78
ENDCHAR

STARTCHAR K
ENCODING 75
SWIDTH 592 0
DWIDTH 10 0
BBX 9 12 1 0
BITMAP
C300
C700
CE00
CC00
D800
F000
F800
DC00
CC00
C600
C700
C380
ENDCHAR

STARTCHAR L
ENCODING 76
SWIDTH 501 0
DWIDTH 8 0
BBX 7 12 1 0
BITMAP
C0
C0
C0
C0
C0
C0
C0
C0
C0
C0
FE
FE
ENDCHAR

STARTCHAR M
ENCODING 77
SWIDTH 683 0
DWIDTH 11 0
BBX 10 12 0 0
BITMAP
E1C0
E1C0
E1C0
F3C0
F3C0
D2C0
D2C0
DEC0
DEC0
CCC0
CCC0
CCC0
ENDCHAR

STARTCHAR N
ENCODING 78
SWIDTH 592 0
DWIDTH 9 0
BBX 8 12 0 0
BITMAP
C3
E3
E3
F3
F3
DB
DB
CF
CF
C7
C7
C3
ENDCHAR

STARTCHAR O
ENCODING 79
SWIDTH 638 0
DWIDTH 10 0
BBX 9 12 0 0
BITMAP
3E00
7F00
6300
C180
C180
C180
C180
C180
C180
6300
7F00
3E00
ENDCHAR

STARTCHAR P
ENCODING 80
SWIDTH 547 0
DWIDTH 9 0
BBX 7 12 1 0
BITMAP
F8
FC
CE
C6
C6
CE
FC
F8
C0
C0
C0
C0
ENDCHAR

STARTCHAR Q
ENCODING 81
SWIDTH 638 0
DWIDTH 10 0
BBX 9 13 0 -1
BITMAP
3E00
7F00
6300
C180
C180
C180
C180
CD80
CD80
6700
7F00
3D80
0180
ENDCHAR

STARTCHAR R
ENCODING 82
SWIDTH 592 0
DWIDTH 9 0
BBX 8 12 0 0
BITMAP
FC
FE
C7
C3
C7
FE
FE
C7
C3
C3
C3
C3
ENDCHAR

STARTCHAR S
ENCODING 83
SWIDTH 547 0
DWIDTH 9 0
BBX 8 12 0 0
BITMAP
3C
7E
E7
C3
E0
78
1E
07
C3
E7
7E
3C
ENDCHAR

STARTCHAR T
ENCODING 84
SWIDTH 501 0
DWIDTH 9 0
BBX 8 12 0 0
BITMAP
FF
FF
18
18
18
18
18
18
18
18
18
18
ENDCHAR

STARTCHAR U
ENCODING 85
SWIDTH 592 0
DWIDTH 9 0
BBX 8 12 0 0
BITMAP
C3
C3
C3
C3
C3
C3
C3
C3
C3
E7
7E
3C
ENDCHAR

STARTCHAR V
ENCODING 86
SWIDTH 547 0
DWIDTH 9 0
BBX 8 12 0 0
BITMAP
C3
C3
C3
66
66
66
24
3C
3C
18
18
18
ENDCHAR

STARTCHAR W
ENCODING 87
SWIDTH 774 0
DWIDTH 13 0
BBX 12 12 0 0
BITMAP
C630
C630
C630
C630
6F60
6F60
6960
79E0
39C0
30C0
30C0
30C0
ENDCHAR

STARTCHAR X
ENCODING 88
SWIDTH 547 0
DWIDTH 10 0
BBX 9 12 0 0
BITMAP
E380
6300
6300
3600
3600
1C00
1C00
3600
3600
6300
6300
E380
ENDCHAR

STARTCHAR Y
ENCODING 89
SWIDTH 547 0
DWIDTH 9 0
BBX 10 12 -1 0
BITMAP
E1C0
6180
6180
3300
3300
1E00
1E00
0C00
0C00
0C00
0C00
0C00
ENDCHAR

STARTCHAR Z
ENCODING 90
SWIDTH 501 0
DWIDTH 9 0
BBX 8 12 0 0
BITMAP
FF
FF
06
0E
0C
18
18
30
70
60
FF
FF
ENDCHAR

STARTCHAR bracketleft
ENCODING 91
SWIDTH 273 0
DWIDTH 4 0
BBX 3 15 0 -3
BITMAP
E0
E0
C0
C0
C0
C0
C0
C0
C0
C0
C0
C0
C0
E0
E0
ENDCHAR

STARTCHAR backslash
ENCODING 92
SWIDTH 228 0
DWIDTH 4 0
BBX 4 11 0 0
BITMAP
80
80
C0
40
40
60
20
20
30
10
10
ENDCHAR

STARTCHAR bracketright
ENCODING 93
SWIDTH 273 0
DWIDTH 4 0
BBX 3 15 0 -3
BITMAP
E0
E0
60
60
60
60
60
60
60
60
60
60
60
E0
E0
ENDCHAR

STARTCHAR asciicircum
ENCODING 94
SWIDTH 479 0
DWIDTH 8 0
BBX 6 7 1 4
BITMAP
30
30
78
78
48
CC
CC
ENDCHAR

STARTCHAR underscore
ENCODING 95
SWIDTH 456 0
DWIDTH 7 0
BBX 7 1 0 -3
BITMAP
FE
ENDCHAR

STARTCHAR quoteleft
ENCODING 96
SWIDTH 228 0
DWIDTH 4 0
BBX 2 4 1 8
BITMAP
40
80
C0
C0
ENDCHAR

STARTCHAR a
ENCODING 97
SWIDTH 456 0
DWIDTH 7 0
BBX 6 9 0 0
BITMAP
78
FC
CC
1C
7C
CC
CC
FC
6C
ENDCHAR

STARTCHAR b
ENCODING 98
SWIDTH 501 0
DWIDTH 8 0
BBX 7 12 0 0
BITMAP
C0
C0
C0
D8
FC
EE
C6
C6
C6
EE
FC
D8
ENDCHAR

STARTCHAR c
ENCODING 99
SWIDTH 456 0
DWIDTH 7 0
BBX 6 9 0 0
BITMAP
38
7C
EC
C0
C0
C0
EC
7C
38
ENDCHAR

STARTCHAR d
ENCODING 100
SWIDTH 501 0
DWIDTH 8 0
BBX 7 12 0 0
BITMAP
06
06
06
36
7E
EE
C6
C6
C6
EE
7E
36
ENDCHAR

STARTCHAR e
ENCODING 101
SWIDTH 456 0
DWIDTH 7 0
BBX 6 9 0 0
BITMAP
30
78
CC
CC
FC
C0
CC
7C
38
ENDCHAR

STARTCHAR f
ENCODING 102
SWIDTH 273 0
DWIDTH 5 0
BBX 4 12 0 0
BITMAP
30
70
60
F0
F0
60
60
60
60
60
60
60
ENDCHAR

STARTCHAR g
ENCODING 103
SWIDTH 501 0
DWIDTH 8 0
BBX 7 12 0 -3
BITMAP
36
7E
EE
C6
C6
C6
EE
7E
36
C6
FC
78
ENDCHAR

STARTCHAR h
ENCODING 104
SWIDTH 501 0
DWIDTH 8 0
BBX 7 12 0 0
BITMAP
C0
C0
C0
DC
FE
E6
C6
C6
C6
C6
C6
C6
ENDCHAR

STARTCHAR i
ENCODING 105
SWIDTH 228 0
DWIDTH 3 0
BBX 2 12 0 0
BITMAP
C0
C0
00
C0
C0
C0
C0
C0
C0
C0
C0
C0
ENDCHAR

STARTCHAR j
ENCODING 106
SWIDTH 228 0
DWIDTH 3 0
BBX 3 15 -1 -3
BITMAP
60
60
00
60
60
60
60
60
60
60
60
60
60
E0
C0
ENDCHAR

STARTCHAR k
ENCODING 107
SWIDTH 456 0
DWIDTH 7 0
BBX 7 12 0 0
BITMAP
C0
C0
C0
CC
D8
D8
F0
F0
D8
D8
CC
CE
ENDCHAR

STARTCHAR l
ENCODING 108
SWIDTH 228 0
DWIDTH 3 0
BBX 2 12 0 0
BITMAP
C0
C0
C0
C0
C0
C0
C0
C0
C0
C0
C0
C0
ENDCHAR

STARTCHAR m
ENCODING 109
SWIDTH 729 0
DWIDTH 11 0
BBX 10 9 0 0
BITMAP
DB80
FFC0
CCC0
CCC0
CCC0
CCC0
CCC0
CCC0
CCC0
ENDCHAR

STARTCHAR n
ENCODING 110
SWIDTH 501 0
DWIDTH 8 0
BBX 7 9 0 0
BITMAP
DC
FE
E6
C6
C6
C6
C6
C6
C6
ENDCHAR

STARTCHAR o
ENCODING 111
SWIDTH 501 0
DWIDTH 8 0
BBX 7 9 0 0
BITMAP
38
7C
EE
C6
C6
C6
EE
7C
38
ENDCHAR

STARTCHAR p
ENCODING 112
SWIDTH 501 0
DWIDTH 8 0
BBX 7 12 0 -3
BITMAP
D8
FC
EE
C6
C6
C6
EE
FC
D8
C0
C0
C0
ENDCHAR

STARTCHAR q
ENCODING 113
SWIDTH 501 0
DWIDTH 8 0
BBX 7 12 0 -3
BITMAP
36
7E
EE
C6
C6
C6
EE
7E
36
06
06
06
ENDCHAR

STARTCHAR r
ENCODING 114
SWIDTH 319 0
DWIDTH 5 0
BBX 5 9 0 0
BITMAP
D0
F8
E0
C0
C0
C0
C0
C0
C0
ENDCHAR

STARTCHAR s
ENCODING 115
SWIDTH 456 0
DWIDTH 7 0
BBX 6 9 0 0
BITMAP
78
FC
CC
E0
78
1C
CC
FC
78
ENDCHAR

STARTCHAR t
ENCODING 116
SWIDTH 273 0
DWIDTH 5 0
BBX 4 11 0 0
BITMAP
60
60
F0
F0
60
60
60
60
60
70
30
ENDCHAR

STARTCHAR u
ENCODING 117
SWIDTH 501 0
DWIDTH 8 0
BBX 7 9 0 0
BITMAP
C6
C6
C6
C6
C6
C6
CE
FE
76
ENDCHAR

STARTCHAR v
ENCODING 118
SWIDTH 456 0
DWIDTH 7 0
BBX 6 9 0 0
BITMAP
CC
CC
CC
48
78
78
30
30
30
ENDCHAR

STARTCHAR w
ENCODING 119
SWIDTH 638 0
DWIDTH 11 0
BBX 10 9 0 0
BITMAP
CCC0
CCC0
4C80
4C80
7F80
7380
3300
3300
3300
ENDCHAR

STARTCHAR x
ENCODING 120
SWIDTH 456 0
DWIDTH 8 0
BBX 7 9 0 0
BITMAP
C6
EE
6C
38
38
38
6C
EE
C6
ENDCHAR

STARTCHAR y
ENCODING 121
SWIDTH 456 0
DWIDTH 8 0
BBX 7 12 0 -3
BITMAP
C6
C6
C6
6C
6C
2C
38
38
18
10
70
60
ENDCHAR

STARTCHAR z
ENCODING 122
SWIDTH 410 0
DWIDTH 7 0
BBX 6 9 0 0
BITMAP
FC
FC
18
18
30
60
60
FC
FC
ENDCHAR

STARTCHAR braceleft
ENCODING 123
SWIDTH 319 0
DWIDTH 5 0
BBX 4 15 0 -3
BITMAP
30
70
60
60
60
60
60
C0
60
60
60
60
60
70
30
ENDCHAR

STARTCHAR bar
ENCODING 124
SWIDTH 230 0
DWIDTH 4 0
BBX 1 15 1 -3
BITMAP
80
80
80
80
80
80
80
80
80
80
80
80
80
80
80
ENDCHAR

STARTCHAR braceright
ENCODING 125
SWIDTH 319 0
DWIDTH 5 0
BBX 4 15 0 -3
BITMAP
C0
E0
60
60
60
60
60
30
60
60
60
60
60
E0
C0
ENDCHAR

STARTCHAR asciitilde
ENCODING 126
SWIDTH 479 0
DWIDTH 8 0
BBX 6 3 1 3
BITMAP
64
FC
98
ENDCHAR

STARTCHAR exclamdown
ENCODING 161
SWIDTH 273 0
DWIDTH 4 0
BBX 2 12 1 -3
BITMAP
C0
C0
00
00
80
80
80
C0
C0
C0
C0
C0
ENDCHAR

STARTCHAR cent
ENCODING 162
SWIDTH 456 0
DWIDTH 7 0
BBX 6 13 0 -2
BITMAP
08
08
38
7C
DC
D0
D0
E0
EC
7C
38
20
20
ENDCHAR

STARTCHAR sterling
ENCODING 163
SWIDTH 456 0
DWIDTH 7 0
BBX 7 12 0 0
BITMAP
38
7C
CC
CC
C0
60
F8
30
30
70
FE
CC
ENDCHAR

STARTCHAR currency
ENCODING 164
SWIDTH 456 0
DWIDTH 7 0
BBX 6 8 0 2
BITMAP
CC
78
CC
CC
CC
CC
78
CC
ENDCHAR

STARTCHAR yen
ENCODING 165
SWIDTH 456 0
DWIDTH 7 0
BBX 8 12 -1 0
BITMAP
C3
42
66
24
3C
18
7E
18
7E
18
18
18
ENDCHAR

STARTCHAR brokenbar
ENCODING 166
SWIDTH 230 0
DWIDTH 4 0
BBX 1 15 1 -3
BITMAP
80
80
80
80
80
80
00
00
00
80
80
80
80
80
80
ENDCHAR

STARTCHAR section
ENCODING 167
SWIDTH 456 0
DWIDTH 7 0
BBX 7 15 0 -3
BITMAP
38
7C
6C
60
30
7C
CE
C6
E6
7C
18
0C
6C
7C
38
ENDCHAR

STARTCHAR dieresis
ENCODING 168
SWIDTH 273 0
DWIDTH 4 0
BBX 5 2 -1 10
BITMAP
D8
D8
ENDCHAR

STARTCHAR copyright
ENCODING 169
SWIDTH 604 0
DWIDTH 10 0
BBX 10 12 0 0
BITMAP
1E00
3300
4080
DEC0
B340
A040
A040
B340
DEC0
4080
3300
1E00
ENDCHAR

STARTCHAR ordfeminine
ENCODING 170
SWIDTH 303 0
DWIDTH 5 0
BBX 4 7 0 5
BITMAP
60
B0
70
B0
D0
00
F0
ENDCHAR

STARTCHAR guillemotleft
ENCODING 171
SWIDTH 456 0
DWIDTH 7 0
BBX 6 6 0 1
BITMAP
24
6C
D8
D8
6C
24
ENDCHAR

STARTCHAR logicalnot
ENCODING 172
SWIDTH 479 0
DWIDTH 8 0
BBX 7 5 0 2
BITMAP
FE
FE
06
06
06
ENDCHAR

STARTCHAR hyphen
ENCODING 173
SWIDTH 273 0
DWIDTH 4 0
BBX 3 2 0 3
BITMAP
E0
E0
ENDCHAR

STARTCHAR registered
ENCODING 174
SWIDTH 604 0
DWIDTH 10 0
BBX 10 12 0 0
BITMAP
1E00
3300
4080
DCC0
9240
9240
9C40
9640
D2C0
4080
3300
1E00
ENDCHAR

STARTCHAR macron
ENCODING 175
SWIDTH 273 0
DWIDTH 4 0
BBX 4 1 0 11
BITMAP
F0
ENDCHAR

STARTCHAR degree
ENCODING 176
SWIDTH 328 0
DWIDTH 5 0
BBX 4 5 0 7
BITMAP
60
90
90
90
60
ENDCHAR

STARTCHAR plusminus
ENCODING 177
SWIDTH 479 0
DWIDTH 8 0
BBX 6 11 1 0
BITMAP
30
30
30
FC
FC
30
30
30
00
FC
FC
ENDCHAR

STARTCHAR twosuperior
ENCODING 178
SWIDTH 273 0
DWIDTH 4 0
BBX 4 7 0 5
BITMAP
60
B0
90
20
40
80
F0
ENDCHAR

STARTCHAR threesuperior
ENCODING 179
SWIDTH 273 0
DWIDTH 4 0
BBX 4 7 0 5
BITMAP
60
90
30
60
10
B0
60
ENDCHAR

STARTCHAR acute
ENCODING 180
SWIDTH 273 0
DWIDTH 4 0
BBX 3 2 1 10
BITMAP
60
C0
ENDCHAR

STARTCHAR mu
ENCODING 181
SWIDTH 501 0
DWIDTH 8 0
BBX 7 12 0 -3
BITMAP
C6
C6
C6
C6
C6
C6
CE
FE
F6
C0
C0
C0
ENDCHAR

STARTCHAR paragraph
ENCODING 182
SWIDTH 456 0
DWIDTH 7 0
BBX 7 15 0 -3
BITMAP
3E
74
F4
F4
F4
F4
74
14
14
14
14
14
14
14
14
ENDCHAR

STARTCHAR periodcentered
ENCODING 183
SWIDTH 228 0
DWIDTH 3 0
BBX 2 2 0 5
BITMAP
C0
C0
ENDCHAR

STARTCHAR cedilla
ENCODING 184
SWIDTH 273 0
DWIDTH 4 0
BBX 3 3 0 -3
BITMAP
40
60
C0
ENDCHAR

STARTCHAR onesuperior
ENCODING 185
SWIDTH 273 0
DWIDTH 4 0
BBX 3 7 0 5
BITMAP
20
E0
20
20
20
20
20
ENDCHAR

STARTCHAR ordmasculine
ENCODING 186
SWIDTH 299 0
DWIDTH 5 0
BBX 4 7 0 5
BITMAP
60
90
90
90
60
00
F0
ENDCHAR

STARTCHAR guillemotright
ENCODING 187
SWIDTH 456 0
DWIDTH 7 0
BBX 6 6 0 1
BITMAP
90
D8
6C
6C
D8
90
ENDCHAR

STARTCHAR onequarter
ENCODING 188
SWIDTH 684 0
DWIDTH 11 0
BBX 11 12 -1 0
BITMAP
2080
E100
2100
2200
2200
2440
24C0
0940
0A40
13E0
1040
2040
ENDCHAR

STARTCHAR onehalf
ENCODING 189
SWIDTH 684 0
DWIDTH 11 0
BBX 11 12 -1 0
BITMAP
2080
E100
2100
2200
2200
24C0
2560
0920
0840
1080
1100
21E0
ENDCHAR

STARTCHAR threequarters
ENCODING 190
SWIDTH 684 0
DWIDTH 11 0
BBX 11 12 0 0
BITMAP
6080
9100
3100
6200
1200
B440
64C0
0940
0A40
13E0
1040
2040
ENDCHAR

STARTCHAR questiondown
ENCODING 191
SWIDTH 501 0
DWIDTH 8 0
BBX 6 12 1 -3
BITMAP
30
30
00
30
30
60
60
C0
CC
CC
F8
70
ENDCHAR

STARTCHAR Agrave
ENCODING 192
SWIDTH 592 0
DWIDTH 9 0
BBX 10 14 -1 0
BITMAP
1800
0C00
0000
0C00
0C00
1E00
1E00
1200
3300
3300
3F00
7F80
6180
E1C0
ENDCHAR

STARTCHAR Aacute
ENCODING 193
SWIDTH 592 0
DWIDTH 9 0
BBX 10 14 -1 0
BITMAP
0600
0C00
0000
0C00
0C00
1E00
1E00
1200
3300
3300
3F00
7F80
6180
E1C0
ENDCHAR

STARTCHAR Acircumflex
ENCODING 194
SWIDTH 592 0
DWIDTH 9 0
BBX 10 14 -1 0
BITMAP
1C00
3600
0000
0C00
0C00
1E00
1E00
1200
3300
3300
3F00
7F80
6180
E1C0
ENDCHAR

STARTCHAR Atilde
ENCODING 195
SWIDTH 592 0
DWIDTH 9 0
BBX 10 14 -1 0
BITMAP
0D00
1600
0000
0C00
0C00
1E00
1E00
1200
3300
3300
3F00
7F80
6180
E1C0
ENDCHAR

STARTCHAR Adieresis
ENCODING 196
SWIDTH 592 0
DWIDTH 9 0
BBX 10 14 -1 0
BITMAP
3600
3600
0000
0C00
0C00
1E00
1E00
1200
3300
3300
3F00
7F80
6180
E1C0
ENDCHAR

STARTCHAR Aring
ENCODING 197
SWIDTH 592 0
DWIDTH 9 0
BBX 10 14 -1 0
BITMAP
0600
0A00
0C00
0C00
0C00
1E00
1E00
1200
3300
3300
3F00
7F80
6180
E1C0
ENDCHAR

STARTCHAR AE
ENCODING 198
SWIDTH 820 0
DWIDTH 13 0
BBX 13 12 -1 0
BITMAP
0FF8
0FF8
1F00
1B00
1B00
3BF8
33F8
3300
7F00
7F00
63F8
E3F8
ENDCHAR

STARTCHAR Ccedilla
ENCODING 199
SWIDTH 592 0
DWIDTH 9 0
BBX 8 15 0 -3
BITMAP
3C
7E
63
C3
C0
C0
C0
C0
C3
63
7E
3C
08
0C
18
ENDCHAR

STARTCHAR Egrave
ENCODING 200
SWIDTH 547 0
DWIDTH 8 0
BBX 7 14 0 0
BITMAP
30
18
00
FE
FE
C0
C0
FE
FE
C0
C0
C0
FE
FE
ENDCHAR

STARTCHAR Eacute
ENCODING 201
SWIDTH 547 0
DWIDTH 8 0
BBX 7 14 0 0
BITMAP
0C
18
00
FE
FE
C0
C0
FE
FE
C0
C0
C0
FE
FE
ENDCHAR

STARTCHAR Ecircumflex
ENCODING 202
SWIDTH 547 0
DWIDTH 8 0
BBX 7 14 0 0
BITMAP
38
6C
00
FE
FE
C0
C0
FE
FE
C0
C0
C0
FE
FE
ENDCHAR

STARTCHAR Edieresis
ENCODING 203
SWIDTH 547 0
DWIDTH 8 0
BBX 7 14 0 0
BITMAP
6C
6C
00
FE
FE
C0
C0
FE
FE
C0
C0
C0
FE
FE
ENDCHAR

STARTCHAR Igrave
ENCODING 204
SWIDTH 228 0
DWIDTH 5 0
BBX 3 14 0 0
BITMAP
C0
60
00
60
60
60
60
60
60
60
60
60
60
60
ENDCHAR

STARTCHAR Iacute
ENCODING 205
SWIDTH 228 0
DWIDTH 5 0
BBX 3 14 1 0
BITMAP
60
C0
00
C0
C0
C0
C0
C0
C0
C0
C0
C0
C0
C0
ENDCHAR

STARTCHAR Icircumflex
ENCODING 206
SWIDTH 228 0
DWIDTH 5 0
BBX 5 14 -1 0
BITMAP
70
D8
00
30
30
30
30
30
30
30
30
30
30
30
ENDCHAR

STARTCHAR Idieresis
ENCODING 207
SWIDTH 228 0
DWIDTH 5 0
BBX 5 14 -1 0
BITMAP
D8
D8
00
30
30
30
30
30
30
30
30
30
30
30
ENDCHAR

STARTCHAR Eth
ENCODING 208
SWIDTH 592 0
DWIDTH 9 0
BBX 9 12 -1 0
BITMAP
7E00
7F00
6300
6180
6180
F980
F980
6180
6180
6300
7F00
7E00
ENDCHAR

STARTCHAR Ntilde
ENCODING 209
SWIDTH 592 0
DWIDTH 9 0
BBX 8 14 0 0
BITMAP
1A
2C
00
C3
E3
E3
F3
D3
DB
CB
CF
C7
C7
C3
ENDCHAR

STARTCHAR Ograve
ENCODING 210
SWIDTH 638 0
DWIDTH 10 0
BBX 9 14 0 0
BITMAP
1800
0C00
0000
3E00
7F00
6300
C180
C180
C180
C180
C180
6300
7F00
3E00
ENDCHAR

STARTCHAR Oacute
ENCODING 211
SWIDTH 638 0
DWIDTH 10 0
BBX 9 14 0 0
BITMAP
0C00
1800
0000
3E00
7F00
6300
C180
C180
C180
C180
C180
6300
7F00
3E00
ENDCHAR

STARTCHAR Ocircumflex
ENCODING 212
SWIDTH 638 0
DWIDTH 10 0
BBX 9 14 0 0
BITMAP
1C00
3600
0000
3E00
7F00
6300
C180
C180
C180
C180
C180
6300
7F00
3E00
ENDCHAR

STARTCHAR Otilde
ENCODING 213
SWIDTH 638 0
DWIDTH 10 0
BBX 9 14 0 0
BITMAP
1A00
2C00
0000
3E00
7F00
6300
C180
C180
C180
C180
C180
6300
7F00
3E00
ENDCHAR

STARTCHAR Odieresis
ENCODING 214
SWIDTH 638 0
DWIDTH 10 0
BBX 9 14 0 0
BITMAP
3600
3600
0000
3E00
7F00
6300
C180
C180
C180
C180
C180
6300
7F00
3E00
ENDCHAR

STARTCHAR multiply
ENCODING 215
SWIDTH 479 0
DWIDTH 8 0
BBX 6 8 1 0
BITMAP
84
CC
78
30
30
78
CC
84
ENDCHAR

STARTCHAR Oslash
ENCODING 216
SWIDTH 638 0
DWIDTH 10 0
BBX 9 12 0 0
BITMAP
3E80
7F80
6300
C780
C580
C980
C980
D180
F180
6300
FF00
BE00
ENDCHAR

STARTCHAR Ugrave
ENCODING 217
SWIDTH 592 0
DWIDTH 9 0
BBX 8 14 0 0
BITMAP
30
18
00
C3
C3
C3
C3
C3
C3
C3
C3
E7
7E
3C
ENDCHAR

STARTCHAR Uacute
ENCODING 218
SWIDTH 592 0
DWIDTH 9 0
BBX 8 14 0 0
BITMAP
0C
18
00
C3
C3
C3
C3
C3
C3
C3
C3
E7
7E
3C
ENDCHAR

STARTCHAR Ucircumflex
ENCODING 219
SWIDTH 592 0
DWIDTH 9 0
BBX 8 14 0 0
BITMAP
38
6C
00
C3
C3
C3
C3
C3
C3
C3
C3
E7
7E
3C
ENDCHAR

STARTCHAR Udieresis
ENCODING 220
SWIDTH 592 0
DWIDTH 9 0
BBX 8 14 0 0
BITMAP
6C
6C
00
C3
C3
C3
C3
C3
C3
C3
C3
E7
7E
3C
ENDCHAR

STARTCHAR Yacute
ENCODING 221
SWIDTH 547 0
DWIDTH 9 0
BBX 10 14 -1 0
BITMAP
0600
0C00
0000
E1C0
6180
3300
3300
1E00
1E00
0C00
0C00
0C00
0C00
0C00
ENDCHAR

STARTCHAR Thorn
ENCODING 222
SWIDTH 547 0
DWIDTH 9 0
BBX 7 12 1 0
BITMAP
C0
C0
F8
FC
CE
C6
C6
CE
FC
F8
C0
C0
ENDCHAR

STARTCHAR germandbls
ENCODING 223
SWIDTH 501 0
DWIDTH 8 0
BBX 7 12 0 0
BITMAP
38
7C
CC
CC
CC
D8
DC
C6
C6
C6
DC
D8
ENDCHAR

STARTCHAR agrave
ENCODING 224
SWIDTH 456 0
DWIDTH 7 0
BBX 6 12 0 0
BITMAP
60
30
00
78
FC
CC
1C
7C
CC
CC
FC
6C
ENDCHAR

STARTCHAR aacute
ENCODING 225
SWIDTH 456 0
DWIDTH 7 0
BBX 6 12 0 0
BITMAP
18
30
00
78
FC
CC
1C
7C
CC
CC
FC
6C
ENDCHAR

STARTCHAR acircumflex
ENCODING 226
SWIDTH 456 0
DWIDTH 7 0
BBX 6 12 0 0
BITMAP
70
D8
00
78
FC
CC
1C
7C
CC
CC
FC
6C
ENDCHAR

STARTCHAR atilde
ENCODING 227
SWIDTH 456 0
DWIDTH 7 0
BBX 6 12 0 0
BITMAP
34
58
00
78
FC
CC
1C
7C
CC
CC
FC
6C
ENDCHAR

STARTCHAR adieresis
ENCODING 228
SWIDTH 456 0
DWIDTH 7 0
BBX 6 12 0 0
BITMAP
D8
D8
00
78
FC
CC
1C
7C
CC
CC
FC
6C
ENDCHAR

STARTCHAR aring
ENCODING 229
SWIDTH 456 0
DWIDTH 7 0
BBX 6 13 0 0
BITMAP
18
28
30
00
78
FC
CC
1C
7C
CC
CC
FC
6C
ENDCHAR

STARTCHAR ae
ENCODING 230
SWIDTH 729 0
DWIDTH 11 0
BBX 10 9 0 0
BITMAP
7380
FFC0
CCC0
1CC0
7FC0
CC00
CCC0
FFC0
7380
ENDCHAR

STARTCHAR ccedilla
ENCODING 231
SWIDTH 456 0
DWIDTH 7 0
BBX 6 12 0 -3
BITMAP
38
7C
EC
C0
C0
C0
EC
7C
38
10
18
30
ENDCHAR

STARTCHAR egrave
ENCODING 232
SWIDTH 456 0
DWIDTH 7 0
BBX 6 12 0 0
BITMAP
60
30
00
30
78
CC
CC
FC
C0
CC
7C
38
ENDCHAR

STARTCHAR eacute
ENCODING 233
SWIDTH 456 0
DWIDTH 7 0
BBX 6 12 0 0
BITMAP
18
30
00
30
78
CC
CC
FC
C0
CC
7C
38
ENDCHAR

STARTCHAR ecircumflex
ENCODING 234
SWIDTH 456 0
DWIDTH 7 0
BBX 6 12 0 0
BITMAP
38
6C
00
30
78
CC
CC
FC
C0
CC
7C
38
ENDCHAR

STARTCHAR edieresis
ENCODING 235
SWIDTH 456 0
DWIDTH 7 0
BBX 6 12 0 0
BITMAP
D8
D8
00
30
78
CC
CC
FC
C0
CC
7C
38
ENDCHAR

STARTCHAR igrave
ENCODING 236
SWIDTH 228 0
DWIDTH 3 0
BBX 3 12 -1 0
BITMAP
C0
60
00
60
60
60
60
60
60
60
60
60
ENDCHAR

STARTCHAR iacute
ENCODING 237
SWIDTH 228 0
DWIDTH 3 0
BBX 3 12 0 0
BITMAP
60
C0
00
C0
C0
C0
C0
C0
C0
C0
C0
C0
ENDCHAR

STARTCHAR icircumflex
ENCODING 238
SWIDTH 228 0
DWIDTH 3 0
BBX 5 12 -2 0
BITMAP
70
D8
00
30
30
30
30
30
30
30
30
30
ENDCHAR

STARTCHAR idieresis
ENCODING 239
SWIDTH 228 0
DWIDTH 3 0
BBX 5 12 -2 0
BITMAP
D8
D8
00
30
30
30
30
30
30
30
30
30
ENDCHAR

STARTCHAR eth
ENCODING 240
SWIDTH 501 0
DWIDTH 8 0
BBX 7 12 0 0
BITMAP
6C
38
F8
3C
7C
EE
C6
C6
C6
EE
7C
38
ENDCHAR

STARTCHAR ntilde
ENCODING 241
SWIDTH 501 0
DWIDTH 8 0
BBX 7 12 0 0
BITMAP
34
58
00
DC
FE
E6
C6
C6
C6
C6
C6
C6
ENDCHAR

STARTCHAR ograve
ENCODING 242
SWIDTH 501 0
DWIDTH 8 0
BBX 7 12 0 0
BITMAP
30
18
00
38
7C
EE
C6
C6
C6
EE
7C
38
ENDCHAR

STARTCHAR oacute
ENCODING 243
SWIDTH 501 0
DWIDTH 8 0
BBX 7 12 0 0
BITMAP
18
30
00
38
7C
EE
C6
C6
C6
EE
7C
38
ENDCHAR

STARTCHAR ocircumflex
ENCODING 244
SWIDTH 501 0
DWIDTH 8 0
BBX 7 12 0 0
BITMAP
38
6C
00
38
7C
EE
C6
C6
C6
EE
7C
38
ENDCHAR

STARTCHAR otilde
ENCODING 245
SWIDTH 501 0
DWIDTH 8 0
BBX 7 12 0 0
BITMAP
34
58
00
38
7C
EE
C6
C6
C6
EE
7C
38
ENDCHAR

STARTCHAR odieresis
ENCODING 246
SWIDTH 501 0
DWIDTH 8 0
BBX 7 12 0 0
BITMAP
6C
6C
00
38
7C
EE
C6
C6
C6
EE
7C
38
ENDCHAR

STARTCHAR divide
ENCODING 247
SWIDTH 479 0
DWIDTH 8 0
BBX 6 8 1 0
BITMAP
30
30
00
FC
FC
00
30
30
ENDCHAR

STARTCHAR oslash
ENCODING 248
SWIDTH 501 0
DWIDTH 8 0
BBX 7 9 0 0
BITMAP
3A
7C
EE
CE
D6
E6
EE
7C
B8
ENDCHAR

STARTCHAR ugrave
ENCODING 249
SWIDTH 501 0
DWIDTH 8 0
BBX 7 12 0 0
BITMAP
30
18
00
C6
C6
C6
C6
C6
C6
CE
FE
76
ENDCHAR

STARTCHAR uacute
ENCODING 250
SWIDTH 501 0
DWIDTH 8 0
BBX 7 12 0 0
BITMAP
18
30
00
C6
C6
C6
C6
C6
C6
CE
FE
76
ENDCHAR

STARTCHAR ucircumflex
ENCODING 251
SWIDTH 501 0
DWIDTH 8 0
BBX 7 12 0 0
BITMAP
38
6C
00
C6
C6
C6
C6
C6
C6
CE
FE
76
ENDCHAR

STARTCHAR udieresis
ENCODING 252
SWIDTH 501 0
DWIDTH 8 0
BBX 7 12 0 0
BITMAP
6C
6C
00
C6
C6
C6
C6
C6
C6
CE
FE
76
ENDCHAR

STARTCHAR yacute
ENCODING 253
SWIDTH 456 0
DWIDTH 8 0
BBX 7 15 0 -3
BITMAP
18
30
00
C6
C6
C6
6C
6C
2C
38
38
18
10
70
60
ENDCHAR

STARTCHAR thorn
ENCODING 254
SWIDTH 501 0
DWIDTH 8 0
BBX 7 15 0 -3
BITMAP
C0
C0
C0
D8
FC
EE
C6
C6
C6
EE
FC
D8
C0
C0
C0
ENDCHAR

STARTCHAR ydieresis
ENCODING 255
SWIDTH 456 0
DWIDTH 8 0
BBX 7 15 0 -3
BITMAP
6C
6C
00
C6
C6
C6
6C
6C
2C
38
38
18
10
70
60
ENDCHAR
ENDFONT
